# File created by Blade
# Date/Time:  Wed Jan 21 15:55:51 2015
# Frame Rate: 120.000 fps
#------------------------------------------------------
:FULLY-SPECIFIED
:DEGREES
732
root 23.859033 15.131917 -12.535941 -176.718068 12.852650 -203.110401
Spine 20.805635 -12.432263 52.652761
Head 12.041125 23.283950 27.098802
LeftShoulder -13.268259 -54.818977 58.436065
LeftArm 41.238924 -17.063628 13.630282
LeftForeArm 22.670488 -0.000000 -4.180211
LeftHand -9.704669 -0.000000 9.970748
LeftHandThumb1 -26.253704 0.000000 33.147579
RightShoulder -9.808667 3.564498 -5.483283
RightArm 12.689017 44.559276 65.156219
RightForeArm -18.512254 -0.000000 66.205146
RightHand -16.255972 -0.000000 -73.850123
RightHandThumb1 -24.326973 -0.000000 -32.862282
LeftUpLeg 2.259807 32.004179 38.409702
LeftLeg -0.163293 -0.000000 0.000000
LeftFoot -2.633077 15.960142 -24.748958
LeftToeBase 44.536945 -0.000000 -0.000000
RightUpLeg -107.360656 -17.000149 -7.454669
RightLeg 133.063766 -0.000000 -0.000000
RightFoot -65.725126 -37.114747 34.800737
RightToeBase 21.776655 -0.000000 -0.000000
733
root 23.857928 15.136542 -12.532627 -176.723251 12.846110 -203.101151
Spine 20.771079 -12.430342 52.684651
Head 12.027522 23.244666 27.115440
LeftShoulder -13.261661 -54.923127 58.494432
LeftArm 41.242347 -16.962148 13.616222
LeftForeArm 22.737658 0.000000 -4.166480
LeftHand -9.757375 -0.000000 10.085452
LeftHandThumb1 -26.253704 0.000000 33.147579
RightShoulder -9.810925 3.505909 -5.437991
RightArm 12.793773 44.596292 65.174599
RightForeArm -18.549055 -0.000000 66.229896
RightHand -16.266903 0.000000 -73.805874
RightHandThumb1 -24.326973 -0.000000 -32.862282
LeftUpLeg 2.242226 31.977453 38.410656
LeftLeg -0.141065 -0.000000 0.000000
LeftFoot -2.619975 15.971768 -24.713428
LeftToeBase 44.516069 -0.000000 -0.000000
RightUpLeg -107.360272 -17.018212 -7.420156
RightLeg 133.046180 -0.000000 -0.000000
RightFoot -65.655491 -37.165835 34.746868
RightToeBase 22.121119 -0.000000 -0.000000
734
root 23.856252 15.142511 -12.530065 -176.730834 12.849470 -203.099508
Spine 20.739776 -12.423264 52.715915
Head 12.024118 23.220178 27.115450
LeftShoulder -13.180716 -54.899331 58.415924
LeftArm 41.251452 -17.002606 13.649117
LeftForeArm 22.862492 -0.000000 -4.146817
LeftHand -9.705267 0.000000 9.891701
LeftHandThumb1 -26.253704 0.000000 33.147579
RightShoulder -9.782682 3.539949 -5.405940
RightArm 12.704130 44.567881 65.011849
RightForeArm -18.516786 -0.000000 66.260033
RightHand -16.265096 -0.000000 -73.875258
RightHandThumb1 -24.326973 -0.000000 -32.862282
LeftUpLeg 2.250691 32.033142 38.403350
LeftLeg -0.158109 -0.000000 0.000000
LeftFoot -2.583312 15.947531 -24.698798
LeftToeBase 44.521097 -0.000000 -0.000000
RightUpLeg -107.351913 -17.032870 -7.416090
RightLeg 133.026804 -0.000000 -0.000000
RightFoot -65.651193 -37.187681 34.753417
RightToeBase 21.819765 -0.000000 -0.000000
735
root 23.853480 15.148744 -12.528420 -176.738579 12.850270 -203.115950
Spine 20.691385 -12.422464 52.730994
Head 12.058762 23.201412 27.111871
LeftShoulder -13.068928 -54.875919 58.300212
LeftArm 41.280245 -17.002587 13.704448
LeftForeArm 22.751122 -0.000000 -4.205339
LeftHand -9.647335 -0.000000 9.991330
LeftHandThumb1 -26.253704 0.000000 33.147579
RightShoulder -9.769873 3.526307 -5.447489
RightArm 12.766848 44.633519 65.100587
RightForeArm -18.639208 -0.000000 66.215079
RightHand -16.279434 -0.000000 -73.885715
RightHandThumb1 -24.326973 -0.000000 -32.862282
LeftUpLeg 2.245400 32.065838 38.376060
LeftLeg -0.151322 -0.000000 0.000000
LeftFoot -2.581843 15.922146 -24.711155
LeftToeBase 44.547418 -0.000000 -0.000000
RightUpLeg -107.360232 -17.045312 -7.412486
RightLeg 133.031712 -0.000000 -0.000000
RightFoot -65.610940 -37.111229 34.776413
RightToeBase 21.662654 -0.000000 -0.000000
736
root 23.849772 15.155017 -12.527127 -176.752036 12.842105 -203.134626
Spine 20.666909 -12.427354 52.740805
Head 12.021392 23.192103 27.082887
LeftShoulder -13.032143 -54.882796 58.280556
LeftArm 41.274400 -17.030707 13.705205
LeftForeArm 22.712345 -0.000000 -4.196040
LeftHand -9.505513 0.000000 10.022603
LeftHandThumb1 -26.253704 0.000000 33.147579
RightShoulder -9.784474 3.577132 -5.501352
RightArm 12.774159 44.651956 65.146198
RightForeArm -18.716399 -0.000000 66.160218
RightHand -16.275302 -0.000000 -73.888997
RightHandThumb1 -24.326973 -0.000000 -32.862282
LeftUpLeg 2.230687 32.045542 38.343503
LeftLeg -0.130902 -0.000000 0.000000
LeftFoot -2.600434 15.924224 -24.719794
LeftToeBase 44.513260 -0.000000 -0.000000
RightUpLeg -107.348336 -17.090115 -7.428463
RightLeg 133.014492 -0.000000 -0.000000
RightFoot -65.578841 -37.114547 34.732320
RightToeBase 21.761366 -0.000000 -0.000000
